<svg height="73" viewBox="0 0 73 73" width="73" xmlns="http://www.w3.org/2000/svg"><g fill="none" transform="translate(2 2)"><rect fill="#000" height="71" rx="14" stroke="#000" stroke-width="2" width="71" x="-1" y="-1"/><path d="m58.3067362 21.4281798c-2.4109932-4.1309531-5.6813516-7.4014345-9.8119358-9.8121818-4.1311991-2.41087026-8.6412368-3.615998-13.5333103-3.615998-4.8914587 0-9.402972 1.20549662-13.5333103 3.615998-4.1309531 2.4106244-7.4011886 5.6812287-9.8121818 9.8121818-2.41062434 4.1308301-3.615998 8.6417286-3.615998 13.5325725 0 5.8750131 1.71405782 11.1579754 5.1430342 15.8502394 3.4286074 4.6926329 7.8578607 7.9397519 13.2873909 9.7417259.6320127.1173035 1.0998743.0347976 1.4040765-.2454275.3043252-.280594.4563034-.6320127.4563034-1.0527807 0-.07021-.0060251-.7018538-.0177062-1.8956693-.0120501-1.1938154-.0177062-2.2352838-.0177062-3.1239134l-.8074762.1396822c-.5148321.0943101-1.1643051.134272-1.9484189.1229597-.783745-.0109434-1.5973691-.0930805-2.4397658-.2457964-.8427656-.1513634-1.6266335-.5024132-2.3522186-1.0524118-.7252161-.5499986-1.2400482-1.2699275-1.5443734-2.15868l-.3510499-.8078451c-.2339922-.5378256-.6023794-1.1352866-1.1056533-1.7901698-.503274-.655498-1.0122041-1.0998743-1.5270362-1.3338665l-.2457964-.1759553c-.1637823-.1169347-.3157604-.2579694-.4563033-.4216287-.14042-.1636594-.2455505-.3274416-.3157605-.4914698-.0703329-.1641512-.01205-.298792.1754635-.4044144s.5263903-.1568965 1.0181061-.1568965l.7018538.1048846c.4681074.0938182 1.0471245.3740433 1.737789.8423967.6902956.4679845 1.2577545 1.0763889 1.7024996 1.8249674.5385634.9598232 1.1874216 1.6911873 1.948419 2.1944613.7603826.5032739 1.5270361.7544805 2.2992229.7544805.7721867 0 1.4391199-.0585288 2.0010456-.1749716.5613109-.1170576 1.0879472-.2930129 1.5796629-.5268822.21063-1.5687195.7841139-2.7738472 1.7199599-3.6162439-1.3338665-.1401741-2.5330922-.3512958-3.5982918-.6320127-1.0645848-.2810859-2.164705-.7372662-3.2996228-1.3697708-1.1355325-.6316438-2.0775266-1.4160036-2.826228-2.3517267-.7488244-.9362149-1.3633769-2.1653198-1.8427966-3.6862079-.4796657-1.521503-.71956-3.2766294-.71956-5.2658709 0-2.832376.9246567-5.2426315 2.7736013-7.232119-.8661279-2.1294156-.7843597-4.5165547.2455505-7.1611713.6787373-.2108758 1.6852852-.0526267 3.0191517.4737637 1.3341125.5266362 2.3109041.9777753 2.9313586 1.3518186.6204545.3739203 1.1175804.6907874 1.4921156.9477731 2.177001-.6082815 4.4235971-.9124837 6.7404033-.9124837 2.3168061 0 4.5638941.3042022 6.741018.9124837l1.3339895-.8421508c.9122378-.5619257 1.9894875-1.0768808 3.2291669-1.5449882 1.2404171-.4678616 2.188928-.5967233 2.844549-.3858475 1.0527807 2.6447396 1.146599 5.0317557.2802251 7.1611713 1.8488216 1.9894875 2.7738472 4.4003577 2.7738472 7.232119 0 1.9892415-.240755 3.7499011-.7196829 5.2830852-.4795427 1.5334301-1.0993824 2.7613053-1.8597651 3.686208-.7612433.9247797-1.7092623 1.7029914-2.8441801 2.3345123-1.1351637.6320127-2.2356528 1.0881931-3.3002376 1.3692789-1.0650767.2810858-2.2643023.4923305-3.5981688.6327505 1.2165629 1.0527807 1.8249674 2.7145806 1.8249674 4.9846621v7.4067217c0 .420768.146322.7720638.4392119 1.0527807.2925211.2802251.7544806.362731 1.3864933.2453045 5.430268-1.801728 9.8595212-5.04897 13.2880057-9.7416029 3.4281157-4.692264 5.1427883-9.9752263 5.1427883-15.8502394-.0012296-4.890229-1.2072181-9.4007587-3.6167358-13.5315888z" fill="#fff"/></g></svg>