<?xml version="1.0" encoding="UTF-8"?>
<svg id="svg11300" width="128" height="128" style="enable-background:new" version="1.0" viewBox="0 0 128 128" xmlns="http://www.w3.org/2000/svg" xmlns:cc="http://creativecommons.org/ns#" xmlns:dc="http://purl.org/dc/elements/1.1/" xmlns:rdf="http://www.w3.org/1999/02/22-rdf-syntax-ns#">
 <title id="title4162">Adwaita Icon Template</title>
 <metadata id="metadata4">
  <rdf:RDF>
   <cc:Work rdf:about="">
    <dc:format>image/svg+xml</dc:format>
    <dc:type rdf:resource="http://purl.org/dc/dcmitype/StillImage"/>
    <dc:creator>
     <cc:Agent>
      <dc:title>GNOME Design Team</dc:title>
     </cc:Agent>
    </dc:creator>
    <dc:source/>
    <cc:license rdf:resource="http://creativecommons.org/licenses/by-sa/4.0/"/>
    <dc:title>Adwaita Icon Template</dc:title>
    <dc:subject>
     <rdf:Bag/>
    </dc:subject>
    <dc:date/>
    <dc:rights>
     <cc:Agent>
      <dc:title/>
     </cc:Agent>
    </dc:rights>
    <dc:publisher>
     <cc:Agent>
      <dc:title/>
     </cc:Agent>
    </dc:publisher>
    <dc:identifier/>
    <dc:relation/>
    <dc:language/>
    <dc:coverage/>
    <dc:description/>
    <dc:contributor>
     <cc:Agent>
      <dc:title/>
     </cc:Agent>
    </dc:contributor>
   </cc:Work>
   <cc:License rdf:about="http://creativecommons.org/licenses/by-sa/4.0/">
    <cc:permits rdf:resource="http://creativecommons.org/ns#Reproduction"/>
    <cc:permits rdf:resource="http://creativecommons.org/ns#Distribution"/>
    <cc:requires rdf:resource="http://creativecommons.org/ns#Notice"/>
    <cc:requires rdf:resource="http://creativecommons.org/ns#Attribution"/>
    <cc:permits rdf:resource="http://creativecommons.org/ns#DerivativeWorks"/>
    <cc:requires rdf:resource="http://creativecommons.org/ns#ShareAlike"/>
   </cc:License>
  </rdf:RDF>
 </metadata>
 <g id="layer1" transform="translate(0,-172)">
  <g id="layer9">
   <g id="g211" transform="translate(-8.5 -20)">
    <g id="g2147" transform="translate(376.5 20)" style="enable-background:new">
     <rect id="rect2145" x="-356" y="184" width="104" height="104" rx="8" ry="8" style="enable-background:new;fill:#ef2975;paint-order:normal"/>
    </g>
    <path id="path22" d="m92.1 230.55-1.75 8.45c-0.2 0.90001-1.05 1.7-2.1 1.7h-15.2c-1.7 0-3.1 1.4-3.1 3.1v1.85c0 1.7 1.4 3.1 3.1 3.1h12.85c1.2 0 2.2 1.15 1.95 2.4-0.25 1.3-1.6 7.9-1.75 8.6-0.1 0.75001-0.9 1.7-2.1 1.7h-10.5c-2.2 0.05-2.65 0.1-3.95 1.7-1.3 1.6-12.8 16-12.8 16-0.1 0.15001-0.2 0.1-0.2-0.05v-48.95c0-1.15 0.95-2.1 2.1-2.1h31.55c1.1 0 2.2 1.1 1.9 2.5m2.3-10.55h-38.95c-5.35 0-6.95 4.05-6.95 6.6v61.9c0 3.05 1.55 3.95 2.4 4.3 0.85001 0.35 3.1 0.6 4.7-1 0 0 18.5-21.55 18.8-21.9 0.3-0.35001 0.45-0.35001 0.65-0.35001h11.7c5 0 5.95-3.45 6.5-5.55 0.45-1.75 5.6-26.75 7.2-34.65 1.2-6.1-0.35-9.35-6.05-9.35" style="enable-background:new;fill:#fff"/>
   </g>
  </g>
 </g>
</svg>
